<?xml version="1.0" encoding="UTF-8"?>
<svg version="1.1" xmlns="http://www.w3.org/2000/svg" width="48" height="48">
<path d="M0 0 C2 3 2 3 3 5 C5.01669827 6.13350534 5.01669827 6.13350534 7 7 C6.34 7.33 5.68 7.66 5 8 C5.04640625 8.58007812 5.0928125 9.16015625 5.140625 9.7578125 C5.40474945 15.47422021 4.89492515 18.5350858 1 23 C-3.31030319 27.19772064 -7.61970618 31.22106936 -13 34 C-15.4375 33.375 -15.4375 33.375 -18 32 C-19.093125 31.46375 -20.18625 30.9275 -21.3125 30.375 C-22.199375 29.92125 -23.08625 29.4675 -24 29 C-24.99 31.475 -24.99 31.475 -26 34 C-26.33 34 -26.66 34 -27 34 C-27.268125 33.071875 -27.53625 32.14375 -27.8125 31.1875 C-28.94352306 28.15159599 -29.46205303 26.87996072 -32 25 C-34.59915538 23.80972016 -34.59915538 23.80972016 -37 23 C-37 22.67 -37 22.34 -37 22 C-35.35 21.67 -33.7 21.34 -32 21 C-32.15726563 20.43152344 -32.31453125 19.86304687 -32.4765625 19.27734375 C-33.34706445 15.49001065 -33.6310442 11.84799779 -33 8 C-30.81840855 5.24430553 -29.12822506 3.56411253 -26 2 C-22.20806226 1.78123436 -19.41254076 1.85439738 -15.8125 3.125 C-13.11557031 4.31004356 -13.11557031 4.31004356 -11.125 3.125 C-10.42375 2.75375 -9.7225 2.3825 -9 2 C-6.30874179 1.81296275 -3.70249431 1.90991686 -1 2 C-0.67 1.34 -0.34 0.68 0 0 Z " fill="#E4472E" transform="translate(38,6)"/>
<path d="M0 0 C0.66 0.33 1.32 0.66 2 1 C2 1.66 2 2.32 2 3 C5.96 3 9.92 3 14 3 C14 3.99 14 4.98 14 6 C11.98828125 7.89453125 11.98828125 7.89453125 9.3125 9.8125 C8.00732422 10.78123047 8.00732422 10.78123047 6.67578125 11.76953125 C4 13 4 13 1.375 12.33203125 C-1.52856049 10.70355407 -4.27042836 8.90435231 -7 7 C-5.6875 5 -5.6875 5 -4 3 C-3.01 3 -2.02 3 -1 3 C-0.67 2.01 -0.34 1.02 0 0 Z " fill="#A8240F" transform="translate(21,27)"/>
<path d="M0 0 C0.66 0 1.32 0 2 0 C2.2475 0.969375 2.495 1.93875 2.75 2.9375 C3.36875 4.4534375 3.36875 4.4534375 4 6 C6.03243548 6.96877057 6.03243548 6.96877057 8 7 C8 7.66 8 8.32 8 9 C7.21625 9.763125 6.4325 10.52625 5.625 11.3125 C3.09947479 13.89815676 2.06592614 15.60841682 1 19 C0.67 19 0.34 19 0 19 C-0.268125 18.071875 -0.53625 17.14375 -0.8125 16.1875 C-1.94352306 13.15159599 -2.46205303 11.87996072 -5 10 C-7.59915538 8.80972016 -7.59915538 8.80972016 -10 8 C-10 7.67 -10 7.34 -10 7 C-8.906875 6.773125 -7.81375 6.54625 -6.6875 6.3125 C-2.49672376 4.82086778 -1.91792322 3.83584643 0 0 Z " fill="#F1BC2C" transform="translate(11,21)"/>
<path d="M0 0 C0.65234375 1.765625 0.65234375 1.765625 1 4 C0.00390625 5.921875 0.00390625 5.921875 -1.4375 7.75 C-2.14712891 8.67039062 -2.14712891 8.67039062 -2.87109375 9.609375 C-3.24363281 10.06828125 -3.61617187 10.5271875 -4 11 C-5.65 10.67 -7.3 10.34 -9 10 C-10.32296047 3.62573591 -10.32296047 3.62573591 -9 1.0625 C-6.00926074 -0.52633023 -3.31998061 -0.18792343 0 0 Z " fill="#F87464" transform="translate(20,11)"/>
<path d="M0 0 C0.66 0.33 1.32 0.66 2 1 C2 1.66 2 2.32 2 3 C5.96 3 9.92 3 14 3 C14 3.99 14 4.98 14 6 C8.33333333 6 2.66666667 6 -3 6 C-3 5.34 -3 4.68 -3 4 C-2.34 4 -1.68 4 -1 4 C-0.67 2.68 -0.34 1.36 0 0 Z " fill="#B82F17" transform="translate(21,27)"/>
<path d="M0 0 C2 3 2 3 3 5 C5.01669827 6.13350534 5.01669827 6.13350534 7 7 C6.401875 7.268125 5.80375 7.53625 5.1875 7.8125 C3.02775192 8.98493467 1.64209744 10.19369282 0 12 C-1.37562854 10.71034824 -2.70766393 9.37310707 -4 8 C-4 7.34 -4 6.68 -4 6 C-3.34 5.67 -2.68 5.34 -2 5 C-1.27840576 3.35636866 -0.60648579 1.68949614 0 0 Z " fill="#F2C44E" transform="translate(38,6)"/>
<path d="M0 0 C0.99 0.33 1.98 0.66 3 1 C3 1.66 3 2.32 3 3 C4.65 3 6.3 3 8 3 C8 3.66 8 4.32 8 5 C5.36 5.66 2.72 6.32 0 7 C-0.66 5.68 -1.32 4.36 -2 3 C-1.34 2.01 -0.68 1.02 0 0 Z " fill="#FBD972" transform="translate(11,25)"/>
<path d="M0 0 C0.66 0.33 1.32 0.66 2 1 C1.67 2.98 1.34 4.96 1 7 C2.65 7 4.3 7 6 7 C5.67 7.99 5.34 8.98 5 10 C3.35 9.67 1.7 9.34 0 9 C-1.125 2.25 -1.125 2.25 0 0 Z " fill="#F3664F" transform="translate(11,12)"/>
<path d="M0 0 C0.66 0 1.32 0 2 0 C2.66 0.99 3.32 1.98 4 3 C5.98 2.67 7.96 2.34 10 2 C8.68 3.32 7.36 4.64 6 6 C3.37812506 4.95125002 2.20628639 4.35068687 0.75 1.875 C0.5025 1.25625 0.255 0.6375 0 0 Z " fill="#F1C54A" transform="translate(7,28)"/>
<path d="M0 0 C1.32 0 2.64 0 4 0 C4 1.32 4 2.64 4 4 C2.35 4 0.7 4 -1 4 C-0.67 2.68 -0.34 1.36 0 0 Z " fill="#F9897D" transform="translate(14,13)"/>
</svg>
